<svg width="28" height="27" viewBox="0 0 28 27" xmlns="http://www.w3.org/2000/svg">
    <path fill-rule="evenodd" clip-rule="evenodd"
          d="M14 2C7.61421 2 2.4375 7.17671 2.4375 13.5625C2.4375 19.9483 7.61421 25.125 14 25.125C20.3858 25.125 25.5625 19.9483 25.5625 13.5625C25.5625 7.17671 20.3858 2 14 2ZM0.5625 13.5625C0.5625 6.14117 6.57867 0.125 14 0.125C21.4213 0.125 27.4375 6.14117 27.4375 13.5625C27.4375 20.9838 21.4213 27 14 27C6.57867 27 0.5625 20.9838 0.5625 13.5625ZM14.3753 8.28439C13.7206 8.1721 13.0474 8.29512 12.4748 8.63166C11.9021 8.96819 11.4671 9.49653 11.2467 10.1231C11.0749 10.6115 10.5396 10.8682 10.0512 10.6964C9.56277 10.5246 9.30611 9.98932 9.47793 9.50089C9.84528 8.45662 10.5704 7.57606 11.5247 7.01516C12.4791 6.45426 13.6012 6.24923 14.6923 6.43638C15.7833 6.62352 16.773 7.19077 17.4859 8.03765C18.1985 8.88417 18.5886 9.95549 18.5873 11.062M13.6033 13.9226L13.6055 13.9218L13.6278 13.914C13.6491 13.9064 13.6828 13.8942 13.7272 13.8773C13.816 13.8435 13.9467 13.7913 14.105 13.7209C14.4243 13.579 14.8429 13.369 15.2548 13.0944C16.1356 12.5072 16.7123 11.8143 16.7123 11.062L16.7123 11.0606C16.7133 10.3964 16.4792 9.75328 16.0514 9.24515C15.6237 8.73702 15.0299 8.39668 14.3753 8.28439M13.0625 19.8125C13.0625 19.2947 13.4822 18.875 14 18.875H14.0125C14.5303 18.875 14.95 19.2947 14.95 19.8125C14.95 20.3303 14.5303 20.75 14.0125 20.75H14C13.4822 20.75 13.0625 20.3303 13.0625 19.8125Z"
          />
</svg>
