<svg width="22" height="28" viewBox="0 0 22 28" xmlns="http://www.w3.org/2000/svg">
    <path d="M22 5.45192H20.3077V24.9135C20.3077 25.266 20.2416 25.5966 20.1094 25.905C19.9772 26.2135 19.7965 26.4824 19.5673 26.7115C19.3381 26.9407 19.0693 27.1214 18.7608 27.2536C18.4523 27.3858 18.1218 27.4519 17.7692 27.4519H4.23077C3.87821 27.4519 3.54768 27.3858 3.23918 27.2536C2.93069 27.1214 2.66186 26.9407 2.43269 26.7115C2.20353 26.4824 2.02284 26.2135 1.89062 25.905C1.75841 25.5966 1.69231 25.266 1.69231 24.9135V5.45192H0V3.75962H6.76923V2.06731C6.76923 1.82933 6.8133 1.60897 6.90144 1.40625C6.98958 1.20353 7.11078 1.02504 7.26502 0.870793C7.41927 0.716546 7.59776 0.595353 7.80048 0.507212C8.00321 0.419071 8.22356 0.375 8.46154 0.375H13.5385C13.7764 0.375 13.9968 0.419071 14.1995 0.507212C14.4022 0.595353 14.5807 0.716546 14.735 0.870793C14.8892 1.02504 15.0104 1.20353 15.0986 1.40625C15.1867 1.60897 15.2308 1.82933 15.2308 2.06731V3.75962H22V5.45192ZM8.46154 3.75962H13.5385V2.06731H8.46154V3.75962ZM18.6154 5.45192H3.38462V24.9135C3.38462 25.1426 3.46835 25.3409 3.63582 25.5084C3.80329 25.6759 4.0016 25.7596 4.23077 25.7596H17.7692C17.9984 25.7596 18.1967 25.6759 18.3642 25.5084C18.5317 25.3409 18.6154 25.1426 18.6154 24.9135V5.45192ZM8.46154 22.375H6.76923V8.83654H8.46154V22.375ZM11.8462 22.375H10.1538V8.83654H11.8462V22.375ZM15.2308 22.375H13.5385V8.83654H15.2308V22.375Z"
          />
</svg>
