<svg width="22" height="23" viewBox="0 0 22 23" xmlns="http://www.w3.org/2000/svg">
    <path fill-rule="evenodd" clip-rule="evenodd"
          d="M18.522 2.375C18.13 2.375 17.7541 2.53072 17.4769 2.80789L3.07112 17.2137L2.37439 20.0006L5.16131 19.3039L19.5671 4.89808C19.7044 4.76084 19.8132 4.59791 19.8875 4.41859C19.9618 4.23927 20 4.04708 20 3.85299C20 3.6589 19.9618 3.4667 19.8875 3.28739C19.8132 3.10807 19.7044 2.94514 19.5671 2.80789C19.4299 2.67065 19.267 2.56178 19.0876 2.4875C18.9083 2.41323 18.7161 2.375 18.522 2.375ZM16.0627 1.39368C16.715 0.74143 17.5996 0.375 18.522 0.375C18.9788 0.375 19.431 0.464961 19.853 0.639746C20.275 0.814531 20.6584 1.07072 20.9813 1.39368C21.3043 1.71664 21.5605 2.10005 21.7353 2.52202C21.9101 2.94399 22 3.39625 22 3.85299C22 4.30972 21.9101 4.76199 21.7353 5.18396C21.5605 5.60592 21.3043 5.98933 20.9813 6.31229L6.37966 20.914C6.25151 21.0421 6.09093 21.1331 5.91509 21.177L1.24256 22.3451C0.901782 22.4303 0.541295 22.3305 0.292914 22.0821C0.0445341 21.8337 -0.055315 21.4732 0.0298787 21.1325L1.19801 16.4599C1.24197 16.2841 1.33289 16.1235 1.46105 15.9954L16.0627 1.39368Z"
          />
</svg>
