<svg width="24" height="25" viewBox="0 0 24 25" xmlns="http://www.w3.org/2000/svg">
    <path fill-rule="evenodd" clip-rule="evenodd"
          d="M2 5.75C2 5.33579 2.33579 5 2.75 5H20.75C21.1642 5 21.5 5.33579 21.5 5.75C21.5 6.16421 21.1642 6.5 20.75 6.5H2.75C2.33579 6.5 2 6.16421 2 5.75Z"
          />
    <path fill-rule="evenodd" clip-rule="evenodd"
          d="M2 12.25C2 11.8358 2.33579 11.5 2.75 11.5H20.75C21.1642 11.5 21.5 11.8358 21.5 12.25C21.5 12.6642 21.1642 13 20.75 13H2.75C2.33579 13 2 12.6642 2 12.25Z"
          />
    <path fill-rule="evenodd" clip-rule="evenodd"
          d="M2 18.75C2 18.3358 2.33579 18 2.75 18H20.75C21.1642 18 21.5 18.3358 21.5 18.75C21.5 19.1642 21.1642 19.5 20.75 19.5H2.75C2.33579 19.5 2 19.1642 2 18.75Z"
          />
</svg>
