<svg width="26" height="25" viewBox="0 0 26 25" xmlns="http://www.w3.org/2000/svg">
    <path fill-rule="evenodd" clip-rule="evenodd"
          d="M25.3698 9.93428L14.1538 0.42208C13.8317 0.149608 13.4228 0 13 0C12.5772 0 12.1683 0.149608 11.8462 0.42208L0.630257 9.93428C0.356885 10.1664 0.159764 10.4749 0.0643978 10.8197C-0.0309686 11.1645 -0.0202029 11.5298 0.0952873 11.8685C0.210778 12.2071 0.425694 12.5035 0.712259 12.7194C0.998823 12.9352 1.34386 13.0606 1.70279 13.0793V22.5855C1.70214 23.0577 1.88939 23.511 2.22359 23.8463C2.55779 24.1816 3.01178 24.3717 3.48638 24.375H22.5136C22.9882 24.3717 23.4422 24.1816 23.7764 23.8463C24.1106 23.511 24.2978 23.0577 24.2972 22.5855V13.0793C24.6561 13.0606 25.0012 12.9352 25.2878 12.7194C25.5743 12.5035 25.7892 12.2071 25.9047 11.8685C26.0202 11.5298 26.031 11.1645 25.9356 10.8197C25.8402 10.4749 25.6431 10.1664 25.3698 9.93428ZM12.4073 22.5915H11.2182V17.2409H14.7854V22.5915H12.4073ZM22.5154 11.2957V22.5915H16.5696V17.2409C16.5703 17.0071 16.5247 16.7756 16.4354 16.5594C16.346 16.3432 16.2148 16.1467 16.0491 15.9811C15.8834 15.8154 15.6865 15.6839 15.4696 15.594C15.2528 15.5042 15.0203 15.4577 14.7854 15.4573H11.2182C10.9833 15.4577 10.7508 15.5042 10.534 15.594C10.3171 15.6839 10.1202 15.8154 9.95452 15.9811C9.78881 16.1467 9.65754 16.3432 9.56823 16.5594C9.47892 16.7756 9.43332 17.0071 9.43403 17.2409V22.5915H3.48638V11.2957H1.78406L13 1.78354L24.216 11.2957H22.5136H22.5154Z"/>
</svg>
