<svg width="26" height="27" viewBox="0 0 26 27" xmlns="http://www.w3.org/2000/svg">
    <path fill-rule="evenodd" clip-rule="evenodd"
          d="M0 4.375C0 2.16586 1.79086 0.375 4 0.375H22C24.2091 0.375 26 2.16586 26 4.375V22.375C26 24.5841 24.2091 26.375 22 26.375H4C1.79086 26.375 0 24.5841 0 22.375V4.375ZM4 2.375C2.89543 2.375 2 3.27043 2 4.375V22.375C2 23.4796 2.89543 24.375 4 24.375H22C23.1046 24.375 24 23.4796 24 22.375V4.375C24 3.27043 23.1046 2.375 22 2.375H4ZM19 6.375C19.5523 6.375 20 6.82272 20 7.375V19.375C20 19.9273 19.5523 20.375 19 20.375C18.4477 20.375 18 19.9273 18 19.375V7.375C18 6.82272 18.4477 6.375 19 6.375ZM13 10.875C13.5523 10.875 14 11.3227 14 11.875V19.375C14 19.9273 13.5523 20.375 13 20.375C12.4477 20.375 12 19.9273 12 19.375V11.875C12 11.3227 12.4477 10.875 13 10.875ZM7 15.375C7.55228 15.375 8 15.8227 8 16.375V19.375C8 19.9273 7.55228 20.375 7 20.375C6.44772 20.375 6 19.9273 6 19.375V16.375C6 15.8227 6.44772 15.375 7 15.375Z"/>
</svg>
