<svg width="28" height="27" viewBox="0 0 28 27" fill="none" xmlns="http://www.w3.org/2000/svg">
    <path d="M10.3623 9.74949C10.6562 8.91408 11.2362 8.20962 11.9997 7.76091C12.7633 7.31219 13.6609 7.14816 14.5338 7.29788C15.4066 7.4476 16.1983 7.9014 16.7687 8.5789C17.339 9.25641 17.6511 10.1139 17.6498 10.9995C17.6498 13.4995 13.8998 14.7495 13.8998 14.7495M14 19.75H14.0125M26.5 13.5C26.5 20.4036 20.9036 26 14 26C7.09644 26 1.5 20.4036 1.5 13.5C1.5 6.59644 7.09644 1 14 1C20.9036 1 26.5 6.59644 26.5 13.5Z"
          stroke="white" stroke-width="1.875" stroke-linecap="round" stroke-linejoin="round"/>
</svg>
