<svg width="88" height="1018" viewBox="0 0 88 1018" fill="none" xmlns="http://www.w3.org/2000/svg">
    <g filter="url(#filter0_d_54_1292)">
        <rect width="80" height="1010" transform="translate(4)" fill="#A069ED"/>
        <g clip-path="url(#clip0_54_1292)">
            <path fill-rule="evenodd" clip-rule="evenodd"
                  d="M56.3698 51.9343L45.1538 42.4221C44.8317 42.1496 44.4228 42 44 42C43.5772 42 43.1683 42.1496 42.8462 42.4221L31.6303 51.9343C31.3569 52.1664 31.1598 52.4749 31.0644 52.8197C30.969 53.1645 30.9798 53.5298 31.0953 53.8685C31.2108 54.2071 31.4257 54.5035 31.7123 54.7194C31.9988 54.9352 32.3439 55.0606 32.7028 55.0793V64.5855C32.7021 65.0577 32.8894 65.511 33.2236 65.8463C33.5578 66.1816 34.0118 66.3717 34.4864 66.375H53.5136C53.9882 66.3717 54.4422 66.1816 54.7764 65.8463C55.1106 65.511 55.2978 65.0577 55.2972 64.5855V55.0793C55.6561 55.0606 56.0012 54.9352 56.2878 54.7194C56.5743 54.5035 56.7892 54.2071 56.9047 53.8685C57.0202 53.5298 57.031 53.1645 56.9356 52.8197C56.8402 52.4749 56.6431 52.1664 56.3698 51.9343ZM43.4073 64.5915H42.2182V59.2409H45.7854V64.5915H43.4073ZM53.5154 53.2957V64.5915H47.5696V59.2409C47.5703 59.0071 47.5247 58.7756 47.4354 58.5594C47.346 58.3432 47.2148 58.1467 47.0491 57.9811C46.8834 57.8154 46.6865 57.6839 46.4696 57.594C46.2528 57.5042 46.0203 57.4577 45.7854 57.4573H42.2182C41.9833 57.4577 41.7508 57.5042 41.534 57.594C41.3171 57.6839 41.1202 57.8154 40.9545 57.9811C40.7888 58.1467 40.6575 58.3432 40.5682 58.5594C40.4789 58.7756 40.4333 59.0071 40.434 59.2409V64.5915H34.4864V53.2957H32.7841L44 43.7835L55.216 53.2957H53.5136H53.5154Z"
                  fill="white"/>
            <line x1="31" y1="69.875" x2="57" y2="69.875" stroke="#E4DC59"/>
        </g>
        <g clip-path="url(#clip1_54_1292)">
            <path fill-rule="evenodd" clip-rule="evenodd"
                  d="M31 84.375C31 82.1659 32.7909 80.375 35 80.375H53C55.2091 80.375 57 82.1659 57 84.375V102.375C57 104.584 55.2091 106.375 53 106.375H35C32.7909 106.375 31 104.584 31 102.375V84.375ZM35 82.375C33.8954 82.375 33 83.2704 33 84.375V102.375C33 103.48 33.8954 104.375 35 104.375H53C54.1046 104.375 55 103.48 55 102.375V84.375C55 83.2704 54.1046 82.375 53 82.375H35ZM50 86.375C50.5523 86.375 51 86.8227 51 87.375V99.375C51 99.9273 50.5523 100.375 50 100.375C49.4477 100.375 49 99.9273 49 99.375V87.375C49 86.8227 49.4477 86.375 50 86.375ZM44 90.875C44.5523 90.875 45 91.3227 45 91.875V99.375C45 99.9273 44.5523 100.375 44 100.375C43.4477 100.375 43 99.9273 43 99.375V91.875C43 91.3227 43.4477 90.875 44 90.875ZM38 95.375C38.5523 95.375 39 95.8227 39 96.375V99.375C39 99.9273 38.5523 100.375 38 100.375C37.4477 100.375 37 99.9273 37 99.375V96.375C37 95.8227 37.4477 95.375 38 95.375Z"
                  fill="white"/>
        </g>
        <g clip-path="url(#clip2_54_1292)">
            <path fill-rule="evenodd" clip-rule="evenodd"
                  d="M51.522 118.375C51.13 118.375 50.7541 118.531 50.4769 118.808L36.0711 133.214L35.3744 136.001L38.1613 135.304L52.5671 120.898C52.7044 120.761 52.8132 120.598 52.8875 120.419C52.9618 120.239 53 120.047 53 119.853C53 119.659 52.9618 119.467 52.8875 119.287C52.8132 119.108 52.7044 118.945 52.5671 118.808C52.4299 118.671 52.267 118.562 52.0876 118.488C51.9083 118.413 51.7161 118.375 51.522 118.375ZM49.0627 117.394C49.715 116.741 50.5996 116.375 51.522 116.375C51.9788 116.375 52.431 116.465 52.853 116.64C53.275 116.815 53.6584 117.071 53.9813 117.394C54.3043 117.717 54.5605 118.1 54.7353 118.522C54.9101 118.944 55 119.396 55 119.853C55 120.31 54.9101 120.762 54.7353 121.184C54.5605 121.606 54.3043 121.989 53.9813 122.312L39.3797 136.914C39.2515 137.042 39.0909 137.133 38.9151 137.177L34.2426 138.345C33.9018 138.43 33.5413 138.33 33.2929 138.082C33.0445 137.834 32.9447 137.473 33.0299 137.132L34.198 132.46C34.242 132.284 34.3329 132.124 34.461 131.995L49.0627 117.394Z"
                  fill="white"/>
        </g>
        <g clip-path="url(#clip3_54_1292)">
            <path d="M55 153.452H53.3077V172.913C53.3077 173.266 53.2416 173.597 53.1094 173.905C52.9772 174.214 52.7965 174.482 52.5673 174.712C52.3381 174.941 52.0693 175.121 51.7608 175.254C51.4523 175.386 51.1218 175.452 50.7692 175.452H37.2308C36.8782 175.452 36.5477 175.386 36.2392 175.254C35.9307 175.121 35.6619 174.941 35.4327 174.712C35.2035 174.482 35.0228 174.214 34.8906 173.905C34.7584 173.597 34.6923 173.266 34.6923 172.913V153.452H33V151.76H39.7692V150.067C39.7692 149.829 39.8133 149.609 39.9014 149.406C39.9896 149.204 40.1108 149.025 40.265 148.871C40.4193 148.717 40.5978 148.595 40.8005 148.507C41.0032 148.419 41.2236 148.375 41.4615 148.375H46.5385C46.7764 148.375 46.9968 148.419 47.1995 148.507C47.4022 148.595 47.5807 148.717 47.735 148.871C47.8892 149.025 48.0104 149.204 48.0986 149.406C48.1867 149.609 48.2308 149.829 48.2308 150.067V151.76H55V153.452ZM41.4615 151.76H46.5385V150.067H41.4615V151.76ZM51.6154 153.452H36.3846V172.913C36.3846 173.143 36.4683 173.341 36.6358 173.508C36.8033 173.676 37.0016 173.76 37.2308 173.76H50.7692C50.9984 173.76 51.1967 173.676 51.3642 173.508C51.5317 173.341 51.6154 173.143 51.6154 172.913V153.452ZM41.4615 170.375H39.7692V156.837H41.4615V170.375ZM44.8462 170.375H43.1538V156.837H44.8462V170.375ZM48.2308 170.375H46.5385V156.837H48.2308V170.375Z"
                  fill="white"/>
        </g>
        <path d="M40.3623 923.749C40.6562 922.914 41.2362 922.21 41.9997 921.761C42.7633 921.312 43.6609 921.148 44.5338 921.298C45.4066 921.448 46.1983 921.901 46.7687 922.579C47.339 923.256 47.6511 924.114 47.6498 924.999C47.6498 927.499 43.8998 928.749 43.8998 928.749M44 933.75H44.0125M56.5 927.5C56.5 934.404 50.9036 940 44 940C37.0964 940 31.5 934.404 31.5 927.5C31.5 920.596 37.0964 915 44 915C50.9036 915 56.5 920.596 56.5 927.5Z"
              stroke="white" stroke-width="1.875" stroke-linecap="round" stroke-linejoin="round"/>
    </g>
    <defs>
        <filter id="filter0_d_54_1292" x="0" y="0" width="88" height="1018" filterUnits="userSpaceOnUse"
                color-interpolation-filters="sRGB">
            <feFlood flood-opacity="0" result="BackgroundImageFix"/>
            <feColorMatrix in="SourceAlpha" type="matrix" values="0 0 0 0 0 0 0 0 0 0 0 0 0 0 0 0 0 0 127 0"
                           result="hardAlpha"/>
            <feOffset dy="4"/>
            <feGaussianBlur stdDeviation="2"/>
            <feComposite in2="hardAlpha" operator="out"/>
            <feColorMatrix type="matrix" values="0 0 0 0 0 0 0 0 0 0 0 0 0 0 0 0 0 0 0.25 0"/>
            <feBlend mode="normal" in2="BackgroundImageFix" result="effect1_dropShadow_54_1292"/>
            <feBlend mode="normal" in="SourceGraphic" in2="effect1_dropShadow_54_1292" result="shape"/>
        </filter>
        <clipPath id="clip0_54_1292">
            <rect width="26" height="28.375" fill="white" transform="translate(31 42)"/>
        </clipPath>
        <clipPath id="clip1_54_1292">
            <rect width="26" height="26" fill="white" transform="translate(31 80.375)"/>
        </clipPath>
        <clipPath id="clip2_54_1292">
            <rect width="26" height="22" fill="white" transform="translate(31 116.375)"/>
        </clipPath>
        <clipPath id="clip3_54_1292">
            <rect width="26" height="27.0769" fill="white" transform="translate(31 148.375)"/>
        </clipPath>
    </defs>
</svg>
