<svg width="88" height="43" viewBox="0 0 88 43" fill="none" xmlns="http://www.w3.org/2000/svg">
<rect x="1.5" y="1.5" width="85" height="40" fill="#F7F2FF" stroke="url(#paint0_linear_54_1338)" stroke-width="3"/>
<path d="M15.7102 15.9901V13.4545H27.6562V15.9901H23.2031V28H20.1634V15.9901H15.7102ZM42.326 20.7273C42.326 22.3134 42.0253 23.6629 41.424 24.7756C40.8274 25.8883 40.013 26.7382 38.9808 27.3253C37.9534 27.9077 36.7981 28.1989 35.5149 28.1989C34.2223 28.1989 33.0623 27.9053 32.0348 27.3182C31.0073 26.7311 30.1953 25.8812 29.5987 24.7685C29.0021 23.6558 28.7038 22.3087 28.7038 20.7273C28.7038 19.1411 29.0021 17.7917 29.5987 16.679C30.1953 15.5663 31.0073 14.7187 32.0348 14.1364C33.0623 13.5492 34.2223 13.2557 35.5149 13.2557C36.7981 13.2557 37.9534 13.5492 38.9808 14.1364C40.013 14.7187 40.8274 15.5663 41.424 16.679C42.0253 17.7917 42.326 19.1411 42.326 20.7273ZM39.2081 20.7273C39.2081 19.6998 39.0542 18.8333 38.7464 18.1278C38.4434 17.4223 38.0149 16.8873 37.4609 16.5227C36.907 16.1581 36.2583 15.9759 35.5149 15.9759C34.7715 15.9759 34.1229 16.1581 33.5689 16.5227C33.0149 16.8873 32.584 17.4223 32.2763 18.1278C31.9732 18.8333 31.8217 19.6998 31.8217 20.7273C31.8217 21.7547 31.9732 22.6212 32.2763 23.3267C32.584 24.0322 33.0149 24.5672 33.5689 24.9318C34.1229 25.2964 34.7715 25.4787 35.5149 25.4787C36.2583 25.4787 36.907 25.2964 37.4609 24.9318C38.0149 24.5672 38.4434 24.0322 38.7464 23.3267C39.0542 22.6212 39.2081 21.7547 39.2081 20.7273ZM49.7603 28H44.604V13.4545H49.8029C51.266 13.4545 52.5254 13.7457 53.5813 14.3281C54.6372 14.9058 55.4492 15.7367 56.0174 16.821C56.5903 17.9053 56.8768 19.2027 56.8768 20.7131C56.8768 22.2282 56.5903 23.5303 56.0174 24.6193C55.4492 25.7083 54.6325 26.544 53.5671 27.1264C52.5065 27.7088 51.2376 28 49.7603 28ZM47.6793 25.3651H49.6325C50.5415 25.3651 51.3062 25.2041 51.9265 24.8821C52.5515 24.5554 53.0202 24.0511 53.3327 23.3693C53.65 22.6828 53.8086 21.7973 53.8086 20.7131C53.8086 19.6383 53.65 18.7599 53.3327 18.0781C53.0202 17.3963 52.5539 16.8944 51.9336 16.5724C51.3133 16.2505 50.5487 16.0895 49.6396 16.0895H47.6793V25.3651ZM72.5213 20.7273C72.5213 22.3134 72.2206 23.6629 71.6193 24.7756C71.0227 25.8883 70.2083 26.7382 69.1761 27.3253C68.1487 27.9077 66.9934 28.1989 65.7102 28.1989C64.4176 28.1989 63.2576 27.9053 62.2301 27.3182C61.2027 26.7311 60.3906 25.8812 59.794 24.7685C59.1974 23.6558 58.8991 22.3087 58.8991 20.7273C58.8991 19.1411 59.1974 17.7917 59.794 16.679C60.3906 15.5663 61.2027 14.7187 62.2301 14.1364C63.2576 13.5492 64.4176 13.2557 65.7102 13.2557C66.9934 13.2557 68.1487 13.5492 69.1761 14.1364C70.2083 14.7187 71.0227 15.5663 71.6193 16.679C72.2206 17.7917 72.5213 19.1411 72.5213 20.7273ZM69.4034 20.7273C69.4034 19.6998 69.2495 18.8333 68.9418 18.1278C68.6387 17.4223 68.2102 16.8873 67.6562 16.5227C67.1023 16.1581 66.4536 15.9759 65.7102 15.9759C64.9669 15.9759 64.3182 16.1581 63.7642 16.5227C63.2102 16.8873 62.7794 17.4223 62.4716 18.1278C62.1686 18.8333 62.017 19.6998 62.017 20.7273C62.017 21.7547 62.1686 22.6212 62.4716 23.3267C62.7794 24.0322 63.2102 24.5672 63.7642 24.9318C64.3182 25.2964 64.9669 25.4787 65.7102 25.4787C66.4536 25.4787 67.1023 25.2964 67.6562 24.9318C68.2102 24.5672 68.6387 24.0322 68.9418 23.3267C69.2495 22.6212 69.4034 21.7547 69.4034 20.7273Z" fill="black"/>
<defs>
<linearGradient id="paint0_linear_54_1338" x1="0" y1="21.5" x2="88" y2="21.5" gradientUnits="userSpaceOnUse">
<stop stop-color="#A052E8"/>
<stop offset="1" stop-color="#E4DC59"/>
</linearGradient>
</defs>
</svg>
